<svg width="16" height="16" viewBox="0 0 16 16" fill="none" xmlns="http://www.w3.org/2000/svg">
<path d="M8.2544 0.653824C5.28069 0.65339 2.59312 2.42594 1.42268 5.15962L1.33004 5.19033L1.36596 5.29807C-0.175106 9.0989 1.65677 13.4294 5.4576 14.9704C6.34531 15.3304 7.29427 15.5151 8.2522 15.5146C12.3559 15.5152 15.6831 12.189 15.6837 8.08534C15.6843 3.98165 12.3581 0.654412 8.2544 0.653824ZM14.0827 11.8305L13.7012 11.4492V10.561C13.7016 10.5227 13.6931 10.4848 13.6764 10.4503L12.7104 8.52113V7.58886C12.7104 7.50607 12.6691 7.42874 12.6002 7.38279L11.8572 6.88743C11.7989 6.84855 11.727 6.83613 11.659 6.85325L10.7491 7.08062L9.22063 6.42477L9.01035 4.95157L9.59314 4.36902H10.8442L11.2652 5.00184C11.3032 5.05875 11.3632 5.09742 11.4307 5.10859L12.9168 5.35627C12.9566 5.36296 12.9974 5.35971 13.0356 5.34686L14.4043 4.89064C15.5523 7.09359 15.4295 9.74318 14.0827 11.8305ZM13.0612 3.09446L12.6584 3.36295L11.5357 3.1383L10.8073 2.89582C10.7627 2.88068 10.7147 2.87876 10.6691 2.89037L9.74819 3.12047L9.34447 2.98598L9.64367 2.38758H10.4813C10.5197 2.38761 10.5576 2.37873 10.592 2.36158L11.449 1.93309C12.0392 2.24114 12.5821 2.63223 13.0612 3.09446ZM5.53936 1.70225L6.1338 2.09854C6.16302 2.11798 6.19603 2.13099 6.23064 2.13668L7.4309 2.33681L7.31374 2.68728L6.68835 2.89607C6.63235 2.91471 6.58482 2.95273 6.55436 3.00332L5.84302 4.18871L4.70047 4.87429L3.01625 5.11479C2.89417 5.13203 2.8034 5.23646 2.80324 5.35974V6.10278C2.80324 6.16848 2.82937 6.23145 2.87581 6.27789L3.2986 6.70068V7.1262L2.26826 6.43913L1.89451 5.31788C2.6056 3.6931 3.90892 2.40022 5.53936 1.70225ZM4.83422 9.82293L3.71471 9.59878L3.2986 8.76881V8.18676L4.22146 7.26391L4.56301 7.94725C4.60496 8.03122 4.69081 8.08425 4.78468 8.08422H6.37826L7.04922 9.2025C7.09399 9.27702 7.17455 9.32259 7.26148 9.32262H7.95003L7.77666 10.1912L6.83894 11.129C6.79241 11.1754 6.76622 11.2383 6.76612 11.3041V11.9233L5.87448 12.592C5.81212 12.6388 5.7754 12.7122 5.7754 12.7901V13.6848L5.46729 13.5827L5.03236 12.4949V10.0657C5.03239 9.94795 4.94955 9.84646 4.83422 9.82293ZM4.08969 13.6304C1.75441 11.8784 0.76682 8.85129 1.61958 6.05919L1.8254 6.67641C1.84274 6.72864 1.87698 6.77362 1.92274 6.80421L3.15743 7.62725L2.87581 7.90911C2.82937 7.95555 2.80324 8.01852 2.80324 8.08422V8.82726C2.80321 8.86568 2.8121 8.90358 2.82925 8.93797L3.32461 9.92869C3.35891 9.99712 3.42291 10.0458 3.49799 10.0607L4.53824 10.2685V12.5425C4.53821 12.5739 4.54419 12.6051 4.55583 12.6343L5.05119 13.8727C5.07831 13.9404 5.13385 13.9927 5.20302 14.0157L5.94605 14.2633C5.97088 14.2718 5.99689 14.2761 6.02308 14.2762C6.15986 14.2762 6.27076 14.1653 6.27076 14.0285V12.914L7.16241 12.2452C7.22476 12.1985 7.26148 12.1251 7.26148 12.0471V11.4066L8.17963 10.4885C8.21415 10.4539 8.23768 10.4098 8.24725 10.3619L8.49493 9.12349C8.52174 8.98934 8.43474 8.85887 8.30059 8.83206C8.28465 8.82887 8.26846 8.82726 8.2522 8.82726H7.40167L6.7307 7.70899C6.68594 7.63447 6.60538 7.58889 6.51844 7.58886H4.93775L4.51224 6.73511C4.4766 6.66384 4.40886 6.61406 4.33019 6.60136C4.25155 6.58777 4.17127 6.61371 4.11545 6.67071L3.79396 6.99096V6.59814C3.79396 6.53244 3.76783 6.46947 3.72139 6.42303L3.2986 6.00024V5.57448L4.81985 5.35727C4.85252 5.35253 4.88394 5.34132 4.91224 5.32432L6.15064 4.58128C6.18538 4.56042 6.21448 4.53131 6.23534 4.49658L6.93133 3.33669L7.58743 3.11774C7.66152 3.09344 7.71966 3.03533 7.74396 2.96121L7.99164 2.21817C8.03455 2.08829 7.96406 1.9482 7.83418 1.90529C7.8222 1.90133 7.80991 1.89829 7.79746 1.89619L6.36389 1.65718L6.112 1.48925C7.67062 0.981938 9.35874 1.04472 10.8754 1.66634L10.4229 1.89222H9.4906C9.39627 1.8917 9.30986 1.94482 9.26769 2.02919L8.77233 3.01991C8.71131 3.14233 8.76106 3.29106 8.88348 3.35208C8.89391 3.35728 8.90468 3.36174 8.91574 3.36542L9.65878 3.6131C9.70336 3.62824 9.75135 3.63016 9.79698 3.61855L10.7179 3.38846L11.3925 3.6131C11.4022 3.61657 11.4121 3.61923 11.4223 3.62103L12.6607 3.86871C12.7251 3.88184 12.7921 3.86865 12.8467 3.83205L13.4104 3.45607C13.6878 3.76509 13.9371 4.09822 14.1554 4.4515L12.9368 4.8577L11.6174 4.63776L11.1815 3.98388C11.1358 3.91537 11.059 3.87407 10.9767 3.87366H9.4906C9.4249 3.87366 9.36193 3.89979 9.31549 3.94623L8.57245 4.68927C8.51728 4.74441 8.49131 4.82234 8.50236 4.89955L8.75004 6.63331C8.76252 6.71904 8.81886 6.79201 8.89865 6.82576L10.6324 7.5688C10.6821 7.59032 10.7375 7.59474 10.7899 7.58143L11.6744 7.36025L12.2151 7.72137V8.57958C12.2146 8.61791 12.2231 8.6558 12.2398 8.69029L13.2058 10.6195V11.5517C13.2058 11.6174 13.2319 11.6804 13.2784 11.7268L13.7965 12.2452C11.4986 15.3082 7.15266 15.9284 4.08969 13.6304Z" fill="black"/>
</svg>
